<svg width="44" height="44" viewBox="0 0 44 44" fill="none" xmlns="http://www.w3.org/2000/svg">
<path d="M19.9909 41.9909V39.9817C15.8052 39.5129 12.2139 37.7801 9.2169 34.7831C6.21994 31.7862 4.48706 28.1948 4.01827 24.0091H2.00913C1.43988 24.0091 0.96271 23.8166 0.577626 23.4315C0.192542 23.0464 0 22.5693 0 22C0 21.4308 0.192542 20.9536 0.577626 20.5685C0.96271 20.1834 1.43988 19.9909 2.00913 19.9909H4.01827C4.48706 15.8052 6.21994 12.2139 9.2169 9.2169C12.2139 6.21994 15.8052 4.48706 19.9909 4.01827V2.00913C19.9909 1.43988 20.1834 0.96271 20.5685 0.577626C20.9536 0.192542 21.4308 0 22 0C22.5693 0 23.0464 0.192542 23.4315 0.577626C23.8166 0.96271 24.0091 1.43988 24.0091 2.00913V4.01827C28.1948 4.48706 31.7862 6.21994 34.7831 9.2169C37.7801 12.2139 39.5129 15.8052 39.9817 19.9909H41.9909C42.5601 19.9909 43.0373 20.1834 43.4224 20.5685C43.8075 20.9536 44 21.4308 44 22C44 22.5693 43.8075 23.0464 43.4224 23.4315C43.0373 23.8166 42.5601 24.0091 41.9909 24.0091H39.9817C39.5129 28.1948 37.7801 31.7862 34.7831 34.7831C31.7862 37.7801 28.1948 39.5129 24.0091 39.9817V41.9909C24.0091 42.5601 23.8166 43.0373 23.4315 43.4224C23.0464 43.8075 22.5693 44 22 44C21.4308 44 20.9536 43.8075 20.5685 43.4224C20.1834 43.0373 19.9909 42.5601 19.9909 41.9909ZM22 36.0639C25.8843 36.0639 29.1994 34.691 31.9452 31.9452C34.691 29.1994 36.0639 25.8843 36.0639 22C36.0639 18.1157 34.691 14.8006 31.9452 12.0548C29.1994 9.30898 25.8843 7.93608 22 7.93608C18.1157 7.93608 14.8006 9.30898 12.0548 12.0548C9.30898 14.8006 7.93608 18.1157 7.93608 22C7.93608 25.8843 9.30898 29.1994 12.0548 31.9452C14.8006 34.691 18.1157 36.0639 22 36.0639ZM22 30.0365C19.79 30.0365 17.898 29.2496 16.3242 27.6758C14.7504 26.102 13.9635 24.2101 13.9635 22C13.9635 19.79 14.7504 17.898 16.3242 16.3242C17.898 14.7504 19.79 13.9635 22 13.9635C24.2101 13.9635 26.102 14.7504 27.6758 16.3242C29.2496 17.898 30.0365 19.79 30.0365 22C30.0365 24.2101 29.2496 26.102 27.6758 27.6758C26.102 29.2496 24.2101 30.0365 22 30.0365ZM22 26.0183C23.105 26.0183 24.051 25.6248 24.8379 24.8379C25.6248 24.051 26.0183 23.105 26.0183 22C26.0183 20.895 25.6248 19.949 24.8379 19.1621C24.051 18.3752 23.105 17.9817 22 17.9817C20.895 17.9817 19.949 18.3752 19.1621 19.1621C18.3752 19.949 17.9817 20.895 17.9817 22C17.9817 23.105 18.3752 24.051 19.1621 24.8379C19.949 25.6248 20.895 26.0183 22 26.0183Z" fill="black"/>
</svg>
